<svg width="19" height="20" viewBox="0 0 19 20" fill="none" xmlns="http://www.w3.org/2000/svg">
<path d="M3.00805e-05 9.99976C3.0322e-05 15.5248 4.3617 19.9998 9.7411 19.9998C14.0458 19.9998 17.6962 17.1348 18.9832 13.1623C19.0749 12.6623 18.7734 12.4789 18.5148 12.4789C18.2835 12.4789 17.6706 12.4873 16.8586 12.4914C17.4459 15.2731 15.5517 15.8598 15.5517 15.8598C14.4274 16.3148 14.1267 16.9723 14.1267 16.9723C13.5229 17.8781 13.5353 16.9023 13.5353 16.9023C13.603 15.8981 14.5389 15.3706 14.5389 15.3706C16.0284 14.4789 15.598 13.0298 15.3493 12.4581C14.719 12.3681 14.2903 12.1106 14.0466 11.8248C13.8029 14.0456 12.9653 16.3798 9.23307 16.3798C8.16991 16.3798 7.30088 15.9923 6.61937 15.3506C6.3732 15.4631 5.38273 15.8006 4.04119 15.2631C4.04119 15.2631 3.78015 14.4256 5.03991 12.5131C4.82348 11.7131 4.71609 10.8631 4.71113 10.0131C4.71609 9.16309 4.82348 8.31309 5.03991 7.51309C3.78015 5.61309 4.04119 4.77559 4.04119 4.77559C5.38273 4.23809 6.37319 4.57559 6.61937 4.67559C7.30088 4.03809 8.16991 3.65059 9.23307 3.65059C12.9752 3.65059 13.7988 5.98809 14.0383 8.21309C14.3308 7.86309 14.928 7.53809 15.8408 7.53809C17.1444 7.53809 18.1918 7.55059 18.5082 7.55059C18.7635 7.55059 19.0683 7.37559 18.9708 6.86309C17.6921 2.86225 14.0392 -0.000244754 9.7411 -0.000244566C4.3617 -0.000244331 2.98391e-05 4.47726 3.00805e-05 9.99976Z" fill="#000"/>
</svg>
