<svg width="20" height="20" viewBox="0 0 20 20" fill="none" xmlns="http://www.w3.org/2000/svg">
<path d="M2.99165e-05 6.25024L3.02444e-05 13.7502C3.03952e-05 17.2015 2.79878 20.0002 6.25003 20.0002L13.75 20.0002C17.2013 20.0002 20 17.2015 20 13.7502L20 6.25024C20 2.79899 17.2013 0.000243389 13.75 0.00024354L6.25003 0.000243867C2.79878 0.000244018 2.97657e-05 2.79899 2.99165e-05 6.25024ZM13.75 1.87524C16.1625 1.87524 18.125 3.83774 18.125 6.25024L18.125 13.7502C18.125 16.1627 16.1625 18.1252 13.75 18.1252L6.25003 18.1252C3.83753 18.1252 1.87503 16.1627 1.87503 13.7502L1.87503 6.25024C1.87503 3.83774 3.83753 1.87524 6.25003 1.87524L13.75 1.87524Z" fill="#000"/>
<path d="M5.00003 10.0002C5.00003 12.7615 7.23878 15.0002 10 15.0002C12.7613 15.0002 15 12.7615 15 10.0002C15 7.23899 12.7613 5.00024 10 5.00024C7.23878 5.00024 5.00003 7.23899 5.00003 10.0002ZM13.125 10.0002C13.125 11.7227 11.7225 13.1252 10 13.1252C8.27628 13.1252 6.87503 11.7227 6.87503 10.0002C6.87503 8.27774 8.27628 6.87524 10 6.87524C11.7225 6.87524 13.125 8.27774 13.125 10.0002Z" fill="#000"/>
<path d="M5.29126 4.62525C5.29126 4.25729 4.99298 3.959 4.62502 3.959C4.25706 3.959 3.95877 4.25729 3.95877 4.62525C3.95877 4.99321 4.25706 5.2915 4.62502 5.2915C4.99298 5.2915 5.29126 4.99321 5.29126 4.62525Z" fill="#000"/>
</svg>
