<svg width="21" height="30" viewBox="0 0 21 30" fill="none" xmlns="http://www.w3.org/2000/svg">
<path d="M8.49144 0.135332C7.9627 0.322424 7.32821 0.786087 7.04351 1.19281C6.59611 1.84356 6.50663 2.24215 6.50663 3.55179C6.50663 4.73129 6.4985 4.75569 6.27073 5.0892C6.14058 5.28443 6.01043 5.56914 5.98603 5.72369C5.86401 6.35818 6.2382 7.29364 6.66119 7.43192C6.75067 7.45632 6.88895 7.66782 6.9947 7.95252C7.255 8.66022 7.7512 9.36792 8.38569 9.92919C8.9307 10.4173 8.94697 10.4498 8.94697 10.8158C8.94697 11.2307 8.87376 11.2876 8.33688 11.2958C8.12539 11.3039 8.02777 11.3934 7.66986 11.8977C7.24687 12.4915 7.23873 12.4915 6.74253 12.5892C6.05924 12.7274 5.18886 13.0447 4.58691 13.3782L4.08257 13.6548L3.37488 13.3294C2.41501 12.882 2.35807 12.9064 2.35807 13.7768V14.4601L1.87001 14.2893C1.60157 14.1998 1.325 14.151 1.25992 14.1754C1.16231 14.2079 1.13791 14.4519 1.13791 15.5338V16.8435L0.731184 17.2095C0.397672 17.5105 0.300059 17.665 0.161774 18.1043C-0.0253183 18.7144 -0.0578561 20.0891 0.104833 20.569C0.21058 20.8781 0.64984 21.2198 0.94268 21.2198H1.13791V23.5706C1.13791 25.3521 1.16231 25.9378 1.24365 25.9947C1.29246 26.0354 2.87868 26.6699 4.75773 27.402C7.05164 28.2886 8.26367 28.8011 8.4345 28.9556C8.83308 29.2973 9.26421 29.3949 10.4925 29.3949C11.7208 29.3949 12.1438 29.3054 12.5505 28.9556C12.6969 28.8255 13.364 28.5164 14.0717 28.2398C14.7631 27.9714 16.3005 27.3694 17.4881 26.9058C18.6757 26.4502 19.6926 26.0354 19.7495 25.9947C19.8227 25.9378 19.8471 25.3521 19.8471 23.5706V21.2198H20.0423C20.3352 21.2198 20.7744 20.8781 20.8802 20.569C21.0429 20.0891 21.0103 18.7144 20.8232 18.1043C20.685 17.665 20.5873 17.5105 20.2538 17.2095L19.8471 16.8435V15.5338C19.8471 14.4519 19.8227 14.2079 19.7251 14.1754C19.66 14.151 19.3834 14.1998 19.115 14.2893L18.6269 14.4601V13.8581C18.6269 13.1911 18.5781 13.004 18.4154 13.004C18.3585 13.004 17.9925 13.1504 17.602 13.3294L16.9106 13.6466L16.4795 13.4026C15.9263 13.0935 14.9014 12.7193 14.2506 12.5973C13.7381 12.4915 13.7381 12.4915 13.3152 11.8977C12.8922 11.312 12.8922 11.3039 12.4854 11.2795L12.0787 11.2551L12.0543 10.7996C12.0299 10.3522 12.038 10.3359 12.3146 10.1651C12.9328 9.77464 13.5836 8.92052 13.9903 7.93626C14.0961 7.68409 14.2099 7.47259 14.2425 7.47259C14.275 7.47259 14.4133 7.37498 14.5516 7.2611C15.0803 6.82184 15.1698 5.74809 14.7305 5.12988C14.5272 4.84517 14.5191 4.77196 14.4784 3.48672C14.4377 2.25028 14.4214 2.112 14.2181 1.68087C13.9415 1.08706 13.3802 0.525785 12.7864 0.249214C12.339 0.0377197 12.2739 0.029583 10.6145 0.00518036C9.14219 -0.0110893 8.84935 0.00518036 8.49144 0.135332ZM12.5424 0.696608C13.0793 0.940641 13.6161 1.52632 13.8276 2.07133C13.974 2.47805 13.9903 2.67327 13.974 3.78769L13.9496 5.05667L13.6568 5.29256C13.3802 5.51219 13.3558 5.52033 12.9572 5.43898C12.7295 5.39018 12.3309 5.21935 12.0787 5.0648C11.8184 4.91025 11.5256 4.78823 11.4198 4.78823C11.1839 4.78823 10.8992 5.05667 10.8992 5.27629C10.8992 5.52846 10.6552 5.47966 9.87429 5.07294C9.49197 4.86957 9.12592 4.70688 9.06085 4.70688C8.86562 4.70688 8.54024 5.0892 8.54024 5.31697C8.54024 5.51219 8.52397 5.52033 8.05218 5.52033C7.62919 5.52033 7.53157 5.48779 7.27941 5.26003L6.98657 5.00786L7.01097 3.65754C7.03537 2.3479 7.04351 2.29096 7.27941 1.82729C7.56411 1.26602 8.05218 0.834892 8.64599 0.623398C9.01204 0.493246 9.28861 0.476976 10.6145 0.493246C12.0055 0.517649 12.2007 0.533918 12.5424 0.696608ZM9.85802 5.63421C10.2078 5.80503 10.6145 5.94332 10.7691 5.95145C11.0863 5.95959 11.3873 5.74809 11.3873 5.50406C11.3873 5.30883 11.3954 5.30883 12.0706 5.64235C12.4041 5.80503 12.8352 5.94332 13.0955 5.97586C13.5267 6.02466 13.5673 6.0084 13.9415 5.72369C14.4214 5.35764 14.4946 5.42271 14.454 6.14668C14.4296 6.68355 14.2588 6.98453 13.974 6.98453C13.8846 6.98453 13.787 7.07401 13.73 7.20416C13.1281 8.70089 12.5668 9.44926 11.6964 9.92106C11.2246 10.1732 11.127 10.1976 10.4925 10.1976C9.89869 10.1976 9.736 10.1651 9.35369 9.96986C8.5077 9.53874 7.84068 8.7253 7.41769 7.61088C7.24687 7.17162 7.14925 7.01707 7.0191 7.0008C6.70999 6.95199 6.55544 6.68355 6.53104 6.14668C6.49036 5.43085 6.57171 5.3495 6.9947 5.69115C7.31194 5.95145 7.37702 5.96772 8.04404 5.99212C8.84122 6.02466 8.99577 5.95145 9.08525 5.50406C9.10965 5.37391 9.15033 5.28443 9.18286 5.3007C9.20727 5.30883 9.51638 5.46339 9.85802 5.63421ZM10.4925 10.6857C10.8748 10.6857 11.2653 10.6532 11.371 10.6206C11.55 10.5555 11.55 10.5637 11.55 11.2307L11.5419 11.9059L11.0212 12.3777L10.4925 12.8576L9.96377 12.3777L9.44317 11.9059L9.43503 11.2307C9.43503 10.5637 9.43503 10.5555 9.62212 10.6206C9.71974 10.6532 10.1102 10.6857 10.4925 10.6857ZM8.73547 12.0685C8.9307 12.1824 9.29675 12.4671 9.56518 12.7112L10.0451 13.1423L9.736 13.9069C9.57332 14.3299 9.40249 14.7204 9.36182 14.7773C9.31301 14.8587 9.06898 14.5821 8.50771 13.8175L7.71053 12.7518L8.01964 12.3044C8.18233 12.0685 8.33688 11.8652 8.35315 11.8652C8.37755 11.8652 8.54838 11.9547 8.73547 12.0685ZM12.9654 12.3044L13.2664 12.7437L12.5668 13.7036C12.1763 14.2404 11.8184 14.7204 11.7615 14.7773C11.672 14.8668 11.5988 14.761 11.3548 14.1754C10.9074 13.1098 10.9074 13.1667 11.4036 12.7193C11.794 12.3614 12.5017 11.8733 12.6156 11.8652C12.64 11.8652 12.7946 12.0604 12.9654 12.3044ZM8.25554 14.3462C8.82495 15.1271 9.28861 15.6884 9.36182 15.6884C9.55705 15.6884 9.61399 15.5908 10.0532 14.4926C10.2729 13.9395 10.4681 13.4921 10.4925 13.4921C10.5169 13.4921 10.7203 13.9557 10.9399 14.517C11.3548 15.5664 11.4524 15.7209 11.6639 15.6721C11.7289 15.6558 12.2089 15.062 12.7295 14.3462C13.2582 13.6304 13.6975 13.0284 13.7137 13.0203C13.8032 12.9064 16.268 13.7442 16.268 13.8907C16.268 13.9801 11.371 16.1764 11.0456 16.2334L10.7365 16.2822V15.664C10.7365 15.0376 10.6633 14.8993 10.3705 15.0051C10.281 15.0458 10.2485 15.2003 10.2485 15.664V16.2822L9.9475 16.2334C9.62212 16.1764 4.71706 13.9801 4.71706 13.8907C4.71706 13.7524 6.80761 13.0203 7.19806 13.0121C7.24687 13.0121 7.71866 13.6141 8.25554 14.3462ZM6.2382 15.2003C9.81735 16.8353 10.159 16.9492 11.0782 16.754C11.5337 16.6645 12.6563 16.1764 16.5933 14.3543C17.3254 14.0127 17.9762 13.7361 18.0331 13.7361C18.1063 13.7361 18.1389 13.8663 18.1389 14.1754C18.1389 14.517 18.1063 14.6228 18.0006 14.6716C17.9192 14.7041 16.6096 15.1434 15.0966 15.6558C13.1525 16.3066 12.3065 16.6238 12.2251 16.7458C12.0543 16.9817 11.371 17.1526 10.5657 17.1526C9.63839 17.1526 9.05271 17.0224 8.80054 16.7703C8.65413 16.6238 7.86508 16.3229 5.86401 15.6477C4.35914 15.1434 3.06577 14.7041 2.99256 14.6716C2.87868 14.6228 2.84614 14.517 2.84614 14.1754C2.84614 13.8907 2.87868 13.7361 2.94375 13.7361C2.99256 13.7361 4.48116 14.395 6.2382 15.2003ZM4.96109 15.8836L8.17419 16.9736L8.21486 22.082C8.23927 24.8966 8.26367 27.2067 8.27994 27.2149C8.35315 27.2962 8.6948 27.2149 8.73547 27.1091C8.75987 27.0359 8.78428 24.8315 8.78428 22.1959V17.4129L9.17473 17.5349C9.69533 17.6976 11.2897 17.6976 11.8184 17.5349L12.2007 17.4129V22.1959C12.2007 24.8315 12.2251 27.0359 12.2495 27.1091C12.2902 27.2149 12.6319 27.2962 12.7051 27.2149C12.7213 27.2067 12.7457 24.8966 12.7702 22.082L12.8108 16.9736L16.0239 15.8836C17.7891 15.2817 19.2614 14.7936 19.294 14.7936C19.3346 14.7936 19.359 15.2491 19.359 15.8023V16.8109L19.0743 16.9817C18.749 17.1688 18.5944 17.4861 18.6513 17.844C18.6839 18.0311 18.6351 18.145 18.4724 18.3158C18.2772 18.5354 18.2609 18.6005 18.2365 19.4709C18.2121 20.203 18.2365 20.4389 18.3422 20.6422C18.4887 20.9351 18.9035 21.2198 19.1801 21.2198H19.359L19.3428 23.4324L19.3184 25.6449L18.5456 25.9378C14.2506 27.5809 12.3878 28.3456 12.2414 28.5245C11.7696 29.0777 9.2154 29.0777 8.7436 28.5245C8.62972 28.3862 7.64545 27.9632 5.36781 27.0766C3.60264 26.3933 2.03269 25.7832 1.89441 25.7263L1.62597 25.6205V23.4324V21.2442L1.93508 21.1873C2.24419 21.1384 2.49636 20.9351 2.67531 20.5934C2.72412 20.4958 2.76479 20.0403 2.76479 19.5766C2.76479 18.7307 2.65905 18.3321 2.39874 18.1856C2.32553 18.145 2.30113 18.0392 2.32553 17.8603C2.39061 17.4861 2.24419 17.177 1.91068 16.9817L1.62597 16.8109V15.8023C1.62597 15.2491 1.65038 14.7936 1.69105 14.7936C1.72359 14.7936 3.19592 15.2817 4.96109 15.8836ZM1.7968 17.5674C1.87001 17.7138 1.85374 17.7708 1.68291 17.9579C1.52022 18.1206 1.49582 18.2019 1.55276 18.3077C1.60157 18.389 1.69918 18.4541 1.78866 18.4541C1.87001 18.4541 2.01643 18.5517 2.1059 18.6656C2.25232 18.8527 2.27673 18.9991 2.27673 19.6092C2.27673 20.2681 2.26046 20.3494 2.07337 20.5284C1.91068 20.6992 1.7968 20.7317 1.39821 20.7317C0.64984 20.7317 0.560361 20.6178 0.50342 19.6661C0.454613 18.7144 0.617302 18.0555 0.999621 17.6569C1.30059 17.3478 1.65038 17.3071 1.7968 17.5674ZM20.0017 17.6813C20.3758 18.1124 20.5304 18.7388 20.4816 19.6661C20.4409 20.3413 20.4165 20.4552 20.2538 20.5853C19.9935 20.7968 19.2045 20.7887 18.9442 20.5772C18.7652 20.4307 18.749 20.3657 18.749 19.6092C18.749 18.9259 18.7734 18.7713 18.9035 18.6249C18.993 18.5273 19.1231 18.4541 19.2045 18.4541C19.2858 18.4541 19.3834 18.389 19.4323 18.3077C19.4892 18.2019 19.4648 18.1206 19.3021 17.9579C19.1313 17.7708 19.115 17.7138 19.1882 17.5674C19.3428 17.2909 19.7007 17.3397 20.0017 17.6813Z" fill="black"/>
</svg>
